<?xml version="1.0" encoding="UTF-8" standalone="no"?>
<!-- Created with Inkscape (http://www.inkscape.org/) -->

<svg
   xmlns:dc="http://purl.org/dc/elements/1.1/"
   xmlns:cc="http://creativecommons.org/ns#"
   xmlns:rdf="http://www.w3.org/1999/02/22-rdf-syntax-ns#"
   xmlns:svg="http://www.w3.org/2000/svg"
   xmlns="http://www.w3.org/2000/svg"
   xmlns:sodipodi="http://sodipodi.sourceforge.net/DTD/sodipodi-0.dtd"
   xmlns:inkscape="http://www.inkscape.org/namespaces/inkscape"
   width="2560"
   height="1440"
   viewBox="0 0 677.33332 381.00004"
   version="1.1"
   id="svg8"
   inkscape:version="0.92.5 (2060ec1f9f, 2020-04-08)"
   sodipodi:docname="YouTube Channel Art.svg">
  <defs
     id="defs2" />
  <sodipodi:namedview
     id="base"
     pagecolor="#efefef"
     bordercolor="#666666"
     borderopacity="1.0"
     inkscape:pageopacity="0"
     inkscape:pageshadow="2"
     inkscape:zoom="0.35355339"
     inkscape:cx="1182.8724"
     inkscape:cy="769.22033"
     inkscape:document-units="px"
     inkscape:current-layer="layer1"
     showgrid="false"
     inkscape:snap-global="false"
     units="px"
     inkscape:snap-smooth-nodes="true"
     inkscape:window-width="1920"
     inkscape:window-height="1017"
     inkscape:window-x="1912"
     inkscape:window-y="-8"
     inkscape:window-maximized="1"
     borderlayer="true"
     inkscape:showpageshadow="false"
     fit-margin-top="0"
     fit-margin-left="0"
     fit-margin-right="0"
     fit-margin-bottom="0"
     showborder="true" />
  <metadata
     id="metadata5">
    <rdf:RDF>
      <cc:Work
         rdf:about="">
        <dc:format>image/svg+xml</dc:format>
        <dc:type
           rdf:resource="http://purl.org/dc/dcmitype/StillImage" />
        <dc:title></dc:title>
      </cc:Work>
    </rdf:RDF>
  </metadata>
  <g
     inkscape:label="Layer 1"
     inkscape:groupmode="layer"
     id="layer1"
     transform="translate(-152.40843,245.31524)">
    <path
       style="opacity:1;fill:#ffffff;fill-opacity:1;stroke:none;stroke-width:0.34395835;stroke-linecap:round;stroke-linejoin:miter;stroke-miterlimit:4;stroke-dasharray:none;stroke-opacity:1;paint-order:normal"
       d="M 152.40843,-245.31524 H 829.74177 V 135.68478 H 152.40843 Z"
       id="rect981"
       inkscape:connector-curvature="0" />
    <path
       inkscape:connector-curvature="0"
       id="path984"
       d="M 286.61833,-110.70846 H 695.53187 V 1.0780044 H 286.61833 Z"
       style="opacity:1;fill:none;fill-opacity:1;stroke:#ff0000;stroke-width:0.13229169;stroke-linecap:round;stroke-linejoin:miter;stroke-miterlimit:4;stroke-dasharray:none;stroke-opacity:1;paint-order:normal" />
    <g
       aria-label="TEXT &amp; LOGO SAFE AREA"
       style="font-style:normal;font-variant:normal;font-weight:bold;font-stretch:normal;font-size:4.93888903px;line-height:1.25;font-family:Lato;-inkscape-font-specification:'Lato, Bold';font-variant-ligatures:normal;font-variant-caps:normal;font-variant-numeric:normal;font-feature-settings:normal;text-align:start;letter-spacing:0px;word-spacing:0px;writing-mode:lr-tb;text-anchor:start;fill:#ff0000;fill-opacity:1;stroke:none;stroke-width:0.26458335"
       id="text988">
      <path
         d="m 464.5646,-56.054893 h -1.07668 v 3.02507 h -0.66428 v -3.02507 h -1.07667 v -0.545747 h 2.81763 z"
         style="font-style:normal;font-variant:normal;font-weight:bold;font-stretch:normal;font-size:4.93888903px;font-family:Lato;-inkscape-font-specification:'Lato, Bold';font-variant-ligatures:normal;font-variant-caps:normal;font-variant-numeric:normal;font-feature-settings:normal;text-align:start;writing-mode:lr-tb;text-anchor:start;fill:#ff0000;stroke-width:0.26458335"
         id="path990" />
      <path
         d="m 465.69862,-56.072179 v 0.990247 h 1.24954 v 0.511175 h -1.24954 v 1.010003 h 1.58538 v 0.530931 h -2.25213 v -3.570817 h 2.25213 v 0.528461 z"
         style="font-style:normal;font-variant:normal;font-weight:bold;font-stretch:normal;font-size:4.93888903px;font-family:Lato;-inkscape-font-specification:'Lato, Bold';font-variant-ligatures:normal;font-variant-caps:normal;font-variant-numeric:normal;font-feature-settings:normal;text-align:start;writing-mode:lr-tb;text-anchor:start;fill:#ff0000;stroke-width:0.26458335"
         id="path992" />
      <path
         d="m 470.76947,-53.029823 h -0.66181 q -0.0692,0 -0.11113,-0.03457 -0.0395,-0.03457 -0.0642,-0.07902 l -0.82726,-1.370541 q -0.0197,0.06174 -0.0469,0.106186 l -0.79269,1.264355 q -0.0296,0.04198 -0.0691,0.07902 -0.037,0.03457 -0.0988,0.03457 h -0.61983 l 1.18533,-1.837267 -1.13841,-1.73355 h 0.66181 q 0.0691,0 0.0988,0.01975 0.0321,0.01729 0.0593,0.05927 l 0.81245,1.308806 q 0.0247,-0.06174 0.0593,-0.123472 l 0.74577,-1.172987 q 0.0272,-0.04692 0.0593,-0.06914 0.0321,-0.02222 0.0815,-0.02222 h 0.63464 l -1.14829,1.706386 z"
         style="font-style:normal;font-variant:normal;font-weight:bold;font-stretch:normal;font-size:4.93888903px;font-family:Lato;-inkscape-font-specification:'Lato, Bold';font-variant-ligatures:normal;font-variant-caps:normal;font-variant-numeric:normal;font-feature-settings:normal;text-align:start;writing-mode:lr-tb;text-anchor:start;fill:#ff0000;stroke-width:0.26458335"
         id="path994" />
      <path
         d="M 473.67068,-56.054893 H 472.594 v 3.02507 h -0.66428 v -3.02507 h -1.07668 v -0.545747 h 2.81764 z"
         style="font-style:normal;font-variant:normal;font-weight:bold;font-stretch:normal;font-size:4.93888903px;font-family:Lato;-inkscape-font-specification:'Lato, Bold';font-variant-ligatures:normal;font-variant-caps:normal;font-variant-numeric:normal;font-feature-settings:normal;text-align:start;writing-mode:lr-tb;text-anchor:start;fill:#ff0000;stroke-width:0.26458335"
         id="path996" />
      <path
         d="m 475.96255,-54.699168 q -0.19755,0.128411 -0.28892,0.291395 -0.0889,0.160514 -0.0889,0.345722 0,0.135819 0.0469,0.244475 0.0469,0.108655 0.12594,0.185208 0.0815,0.07408 0.18768,0.116064 0.10865,0.03951 0.22966,0.03951 0.21731,0 0.39758,-0.06667 0.18027,-0.06914 0.32596,-0.190147 z m 2.37808,1.669345 h -0.59761 q -0.0938,0 -0.1531,-0.02222 -0.0568,-0.02222 -0.121,-0.09384 l -0.24695,-0.254353 q -0.2346,0.192617 -0.52599,0.301272 -0.2914,0.108656 -0.62971,0.108656 -0.20496,0 -0.40499,-0.06914 -0.19755,-0.07161 -0.35313,-0.204964 -0.15557,-0.13335 -0.25188,-0.321027 -0.0938,-0.190148 -0.0938,-0.427214 0,-0.167922 0.0543,-0.316089 0.0543,-0.150636 0.15063,-0.279047 0.0963,-0.128411 0.22966,-0.229659 0.13335,-0.103716 0.2914,-0.1778 -0.13335,-0.185208 -0.19262,-0.360539 -0.0593,-0.1778 -0.0593,-0.35313 0,-0.185208 0.0667,-0.350661 0.0691,-0.167923 0.19755,-0.291395 0.12841,-0.123472 0.31609,-0.195086 0.18768,-0.07408 0.42475,-0.07408 0.21731,0 0.3877,0.06668 0.17286,0.06667 0.29386,0.1778 0.12348,0.111125 0.19262,0.254353 0.0716,0.143227 0.084,0.296333 l -0.3877,0.08149 q -0.10866,0.02222 -0.15805,-0.09384 -0.0222,-0.06421 -0.0593,-0.121003 -0.0346,-0.05927 -0.084,-0.101247 -0.0494,-0.04445 -0.11607,-0.06915 -0.0667,-0.02716 -0.1531,-0.02716 -0.10372,0 -0.18521,0.03704 -0.0815,0.03457 -0.13829,0.09631 -0.0543,0.05927 -0.084,0.140759 -0.0296,0.07902 -0.0296,0.167922 0,0.07408 0.0148,0.143228 0.0148,0.06914 0.0494,0.138289 0.0346,0.06914 0.0889,0.143227 0.0568,0.07161 0.13829,0.155575 l 0.94827,0.985309 q 0.0815,-0.155575 0.13088,-0.328436 0.0494,-0.172861 0.0642,-0.350661 0.007,-0.0568 0.0395,-0.09137 0.0321,-0.03457 0.0889,-0.03457 h 0.3803 q -0.002,0.325967 -0.0938,0.6223 -0.0914,0.296333 -0.26176,0.545747 z"
         style="font-style:normal;font-variant:normal;font-weight:bold;font-stretch:normal;font-size:4.93888903px;font-family:Lato;-inkscape-font-specification:'Lato, Bold';font-variant-ligatures:normal;font-variant-caps:normal;font-variant-numeric:normal;font-feature-settings:normal;text-align:start;writing-mode:lr-tb;text-anchor:start;fill:#ff0000;stroke-width:0.26458335"
         id="path998" />
      <path
         d="m 482.03662,-53.57804 v 0.548217 H 479.945 v -3.570817 h 0.66428 v 3.0226 z"
         style="font-style:normal;font-variant:normal;font-weight:bold;font-stretch:normal;font-size:4.93888903px;font-family:Lato;-inkscape-font-specification:'Lato, Bold';font-variant-ligatures:normal;font-variant-caps:normal;font-variant-numeric:normal;font-feature-settings:normal;text-align:start;writing-mode:lr-tb;text-anchor:start;fill:#ff0000;stroke-width:0.26458335"
         id="path1000" />
      <path
         d="m 485.79087,-54.815232 q 0,0.392642 -0.13089,0.728486 -0.12841,0.333375 -0.36547,0.57785 -0.23707,0.244475 -0.57044,0.382764 -0.33338,0.13582 -0.74084,0.13582 -0.40499,0 -0.73836,-0.13582 -0.33338,-0.138289 -0.57291,-0.382764 -0.23707,-0.244475 -0.36795,-0.57785 -0.13088,-0.335844 -0.13088,-0.728486 0,-0.392641 0.13088,-0.726016 0.13088,-0.335845 0.36795,-0.58032 0.23953,-0.244475 0.57291,-0.380294 0.33337,-0.138289 0.73836,-0.138289 0.27164,0 0.51118,0.06421 0.23953,0.06174 0.43956,0.1778 0.20002,0.113595 0.35807,0.279048 0.16051,0.162983 0.27164,0.365477 0.11112,0.202495 0.16792,0.439562 0.0593,0.237066 0.0593,0.498827 z m -0.6791,0 q 0,-0.293864 -0.079,-0.525991 -0.079,-0.234598 -0.22472,-0.397581 -0.1457,-0.162983 -0.3556,-0.249414 -0.20744,-0.08643 -0.4692,-0.08643 -0.26176,0 -0.47166,0.08643 -0.20744,0.08643 -0.3556,0.249414 -0.1457,0.162983 -0.22472,0.397581 -0.079,0.232127 -0.079,0.525991 0,0.293864 0.079,0.528461 0.079,0.232128 0.22472,0.395112 0.14816,0.160513 0.3556,0.246944 0.2099,0.08643 0.47166,0.08643 0.26176,0 0.4692,-0.08643 0.2099,-0.08643 0.3556,-0.246944 0.14569,-0.162984 0.22472,-0.395112 0.079,-0.234597 0.079,-0.528461 z"
         style="font-style:normal;font-variant:normal;font-weight:bold;font-stretch:normal;font-size:4.93888903px;font-family:Lato;-inkscape-font-specification:'Lato, Bold';font-variant-ligatures:normal;font-variant-caps:normal;font-variant-numeric:normal;font-feature-settings:normal;text-align:start;writing-mode:lr-tb;text-anchor:start;fill:#ff0000;stroke-width:0.26458335"
         id="path1002" />
      <path
         d="m 489.32263,-54.820171 v 1.444625 q -0.27163,0.200025 -0.58032,0.293864 -0.30621,0.09137 -0.65687,0.09137 -0.43709,0 -0.79269,-0.13582 -0.35313,-0.135819 -0.60501,-0.377825 -0.24942,-0.242005 -0.38524,-0.57785 -0.13582,-0.335844 -0.13582,-0.733425 0,-0.402519 0.13088,-0.738364 0.13089,-0.335844 0.37042,-0.57785 0.24201,-0.242005 0.58526,-0.375355 0.34325,-0.13335 0.77047,-0.13335 0.21731,0 0.40499,0.03457 0.19014,0.03457 0.35066,0.09631 0.16298,0.05927 0.29633,0.145698 0.13335,0.08643 0.24447,0.190147 l -0.19014,0.301272 q -0.0444,0.07161 -0.11607,0.0889 -0.0716,0.01482 -0.15557,-0.03704 -0.0815,-0.04692 -0.16298,-0.09384 -0.0815,-0.04692 -0.18274,-0.08149 -0.0988,-0.03457 -0.22472,-0.0568 -0.12348,-0.02223 -0.28646,-0.02223 -0.26423,0 -0.47907,0.0889 -0.21237,0.0889 -0.36301,0.254352 -0.15064,0.165453 -0.23213,0.397581 -0.0815,0.232128 -0.0815,0.518583 0,0.306211 0.0864,0.548217 0.0889,0.239536 0.24695,0.407458 0.16051,0.165453 0.38523,0.254353 0.22472,0.08643 0.5013,0.08643 0.19755,0 0.35313,-0.04198 0.15557,-0.04198 0.30374,-0.113594 v -0.646995 h -0.44944 q -0.0642,0 -0.10125,-0.03457 -0.0346,-0.03704 -0.0346,-0.0889 v -0.375356 z"
         style="font-style:normal;font-variant:normal;font-weight:bold;font-stretch:normal;font-size:4.93888903px;font-family:Lato;-inkscape-font-specification:'Lato, Bold';font-variant-ligatures:normal;font-variant-caps:normal;font-variant-numeric:normal;font-feature-settings:normal;text-align:start;writing-mode:lr-tb;text-anchor:start;fill:#ff0000;stroke-width:0.26458335"
         id="path1004" />
      <path
         d="m 493.37283,-54.815232 q 0,0.392642 -0.13088,0.728486 -0.12841,0.333375 -0.36548,0.57785 -0.23706,0.244475 -0.57044,0.382764 -0.33337,0.13582 -0.74083,0.13582 -0.40499,0 -0.73837,-0.13582 -0.33337,-0.138289 -0.57291,-0.382764 -0.23706,-0.244475 -0.36794,-0.57785 -0.13088,-0.335844 -0.13088,-0.728486 0,-0.392641 0.13088,-0.726016 0.13088,-0.335845 0.36794,-0.58032 0.23954,-0.244475 0.57291,-0.380294 0.33338,-0.138289 0.73837,-0.138289 0.27164,0 0.51117,0.06421 0.23954,0.06174 0.43956,0.1778 0.20003,0.113595 0.35807,0.279048 0.16052,0.162983 0.27164,0.365477 0.11113,0.202495 0.16793,0.439562 0.0593,0.237066 0.0593,0.498827 z m -0.6791,0 q 0,-0.293864 -0.079,-0.525991 -0.079,-0.234598 -0.22472,-0.397581 -0.14569,-0.162983 -0.3556,-0.249414 -0.20743,-0.08643 -0.46919,-0.08643 -0.26176,0 -0.47167,0.08643 -0.20743,0.08643 -0.3556,0.249414 -0.14569,0.162983 -0.22472,0.397581 -0.079,0.232127 -0.079,0.525991 0,0.293864 0.079,0.528461 0.079,0.232128 0.22472,0.395112 0.14817,0.160513 0.3556,0.246944 0.20991,0.08643 0.47167,0.08643 0.26176,0 0.46919,-0.08643 0.20991,-0.08643 0.3556,-0.246944 0.1457,-0.162984 0.22472,-0.395112 0.079,-0.234597 0.079,-0.528461 z"
         style="font-style:normal;font-variant:normal;font-weight:bold;font-stretch:normal;font-size:4.93888903px;font-family:Lato;-inkscape-font-specification:'Lato, Bold';font-variant-ligatures:normal;font-variant-caps:normal;font-variant-numeric:normal;font-feature-settings:normal;text-align:start;writing-mode:lr-tb;text-anchor:start;fill:#ff0000;stroke-width:0.26458335"
         id="path1006" />
      <path
         d="m 497.05863,-55.951176 q -0.0296,0.05186 -0.0642,0.07655 -0.0321,0.02222 -0.0815,0.02222 -0.0519,0 -0.11359,-0.03704 -0.0593,-0.03951 -0.14323,-0.08643 -0.084,-0.04692 -0.19755,-0.08396 -0.11113,-0.03951 -0.26423,-0.03951 -0.13829,0 -0.24201,0.03457 -0.10372,0.0321 -0.17533,0.09137 -0.0691,0.05927 -0.10372,0.143228 -0.0346,0.08149 -0.0346,0.180269 0,0.125942 0.0692,0.209903 0.0716,0.08396 0.18767,0.143228 0.11607,0.05927 0.26423,0.106186 0.14817,0.04692 0.30375,0.101247 0.15557,0.05186 0.30374,0.123472 0.14816,0.06914 0.26423,0.1778 0.11606,0.106186 0.18521,0.261761 0.0716,0.155575 0.0716,0.377825 0,0.242006 -0.084,0.454378 -0.0815,0.209903 -0.24201,0.367947 -0.15804,0.155575 -0.3877,0.246945 -0.22966,0.0889 -0.52599,0.0889 -0.17039,0 -0.33585,-0.03457 -0.16545,-0.0321 -0.31855,-0.09384 -0.15064,-0.06174 -0.28399,-0.148167 -0.13335,-0.08643 -0.23707,-0.192617 l 0.19509,-0.318558 q 0.0247,-0.03457 0.0642,-0.0568 0.0395,-0.0247 0.084,-0.0247 0.0617,0 0.13335,0.05186 0.0716,0.04939 0.17039,0.111125 0.0988,0.06174 0.22966,0.113594 0.13335,0.04939 0.31855,0.04939 0.28399,0 0.43957,-0.13335 0.15557,-0.135819 0.15557,-0.387703 0,-0.140758 -0.0716,-0.229658 -0.0691,-0.0889 -0.18521,-0.148167 -0.11607,-0.06174 -0.26423,-0.103716 -0.14817,-0.04198 -0.30127,-0.09137 -0.15311,-0.04939 -0.30128,-0.118533 -0.14816,-0.06914 -0.26423,-0.18027 -0.11606,-0.111125 -0.18768,-0.276577 -0.0691,-0.167923 -0.0691,-0.412398 0,-0.195086 0.0765,-0.380294 0.079,-0.185209 0.22719,-0.328436 0.14817,-0.143228 0.36548,-0.229659 0.21731,-0.08643 0.49883,-0.08643 0.31609,0 0.58279,0.09878 0.2667,0.09878 0.45437,0.276577 z"
         style="font-style:normal;font-variant:normal;font-weight:bold;font-stretch:normal;font-size:4.93888903px;font-family:Lato;-inkscape-font-specification:'Lato, Bold';font-variant-ligatures:normal;font-variant-caps:normal;font-variant-numeric:normal;font-feature-settings:normal;text-align:start;writing-mode:lr-tb;text-anchor:start;fill:#ff0000;stroke-width:0.26458335"
         id="path1008" />
      <path
         d="m 499.68689,-54.37814 -0.43462,-1.187803 q -0.0321,-0.07902 -0.0667,-0.187678 -0.0346,-0.108655 -0.0692,-0.234597 -0.0321,0.125942 -0.0667,0.237067 -0.0346,0.108655 -0.0667,0.190147 l -0.43215,1.182864 z m 1.17299,1.348317 h -0.51365 q -0.0864,0 -0.14075,-0.04198 -0.0543,-0.04445 -0.0815,-0.108655 l -0.2667,-0.728487 h -1.47919 l -0.2667,0.728487 q -0.0198,0.0568 -0.0766,0.103716 -0.0568,0.04692 -0.14075,0.04692 h -0.51859 l 1.40512,-3.570817 h 0.67662 z"
         style="font-style:normal;font-variant:normal;font-weight:bold;font-stretch:normal;font-size:4.93888903px;font-family:Lato;-inkscape-font-specification:'Lato, Bold';font-variant-ligatures:normal;font-variant-caps:normal;font-variant-numeric:normal;font-feature-settings:normal;text-align:start;writing-mode:lr-tb;text-anchor:start;fill:#ff0000;stroke-width:0.26458335"
         id="path1010" />
      <path
         d="m 501.90106,-56.072179 v 1.056922 h 1.33844 v 0.530931 h -1.33844 v 1.454503 h -0.66675 v -3.570817 h 2.25213 v 0.528461 z"
         style="font-style:normal;font-variant:normal;font-weight:bold;font-stretch:normal;font-size:4.93888903px;font-family:Lato;-inkscape-font-specification:'Lato, Bold';font-variant-ligatures:normal;font-variant-caps:normal;font-variant-numeric:normal;font-feature-settings:normal;text-align:start;writing-mode:lr-tb;text-anchor:start;fill:#ff0000;stroke-width:0.26458335"
         id="path1012" />
      <path
         d="m 504.69848,-56.072179 v 0.990247 h 1.24954 v 0.511175 h -1.24954 v 1.010003 h 1.58538 v 0.530931 h -2.25213 v -3.570817 h 2.25213 v 0.528461 z"
         style="font-style:normal;font-variant:normal;font-weight:bold;font-stretch:normal;font-size:4.93888903px;font-family:Lato;-inkscape-font-specification:'Lato, Bold';font-variant-ligatures:normal;font-variant-caps:normal;font-variant-numeric:normal;font-feature-settings:normal;text-align:start;writing-mode:lr-tb;text-anchor:start;fill:#ff0000;stroke-width:0.26458335"
         id="path1014" />
      <path
         d="m 509.78654,-54.37814 -0.43463,-1.187803 q -0.0321,-0.07902 -0.0667,-0.187678 -0.0346,-0.108655 -0.0691,-0.234597 -0.0321,0.125942 -0.0667,0.237067 -0.0346,0.108655 -0.0667,0.190147 l -0.43215,1.182864 z m 1.17298,1.348317 h -0.51364 q -0.0864,0 -0.14076,-0.04198 -0.0543,-0.04445 -0.0815,-0.108655 l -0.2667,-0.728487 h -1.4792 l -0.2667,0.728487 q -0.0197,0.0568 -0.0765,0.103716 -0.0568,0.04692 -0.14076,0.04692 h -0.51858 l 1.40511,-3.570817 h 0.67663 z"
         style="font-style:normal;font-variant:normal;font-weight:bold;font-stretch:normal;font-size:4.93888903px;font-family:Lato;-inkscape-font-specification:'Lato, Bold';font-variant-ligatures:normal;font-variant-caps:normal;font-variant-numeric:normal;font-feature-settings:normal;text-align:start;writing-mode:lr-tb;text-anchor:start;fill:#ff0000;stroke-width:0.26458335"
         id="path1016" />
      <path
         d="m 512.4131,-54.901662 q 0.18768,0 0.32597,-0.04692 0.14075,-0.04692 0.22965,-0.128411 0.0914,-0.08396 0.13582,-0.197555 0.0444,-0.113595 0.0444,-0.249414 0,-0.271639 -0.18027,-0.417336 -0.1778,-0.145698 -0.54574,-0.145698 h -0.42475 v 1.185334 z m 1.70885,1.871839 h -0.60007 q -0.17039,0 -0.24695,-0.13335 l -0.75071,-1.143353 q -0.042,-0.06421 -0.0938,-0.09137 -0.0494,-0.02716 -0.14816,-0.02716 h -0.28399 v 1.395236 h -0.66428 v -3.570817 h 1.08903 q 0.363,0 0.6223,0.07655 0.26176,0.07408 0.42721,0.209902 0.16792,0.13582 0.24694,0.325967 0.079,0.187678 0.079,0.414867 0,0.180269 -0.0543,0.340783 -0.0519,0.160514 -0.15311,0.291395 -0.0988,0.13088 -0.24694,0.229658 -0.1457,0.09878 -0.33338,0.155575 0.0642,0.03704 0.11854,0.0889 0.0543,0.04939 0.0988,0.118533 z"
         style="font-style:normal;font-variant:normal;font-weight:bold;font-stretch:normal;font-size:4.93888903px;font-family:Lato;-inkscape-font-specification:'Lato, Bold';font-variant-ligatures:normal;font-variant-caps:normal;font-variant-numeric:normal;font-feature-settings:normal;text-align:start;writing-mode:lr-tb;text-anchor:start;fill:#ff0000;stroke-width:0.26458335"
         id="path1018" />
      <path
         d="m 515.17432,-56.072179 v 0.990247 h 1.24954 v 0.511175 h -1.24954 v 1.010003 h 1.58539 v 0.530931 h -2.25214 v -3.570817 h 2.25214 v 0.528461 z"
         style="font-style:normal;font-variant:normal;font-weight:bold;font-stretch:normal;font-size:4.93888903px;font-family:Lato;-inkscape-font-specification:'Lato, Bold';font-variant-ligatures:normal;font-variant-caps:normal;font-variant-numeric:normal;font-feature-settings:normal;text-align:start;writing-mode:lr-tb;text-anchor:start;fill:#ff0000;stroke-width:0.26458335"
         id="path1020" />
      <path
         d="m 519.23023,-54.37814 -0.43462,-1.187803 q -0.0321,-0.07902 -0.0667,-0.187678 -0.0346,-0.108655 -0.0691,-0.234597 -0.0321,0.125942 -0.0667,0.237067 -0.0346,0.108655 -0.0667,0.190147 l -0.43215,1.182864 z m 1.17299,1.348317 h -0.51365 q -0.0864,0 -0.14076,-0.04198 -0.0543,-0.04445 -0.0815,-0.108655 l -0.2667,-0.728487 h -1.47919 l -0.2667,0.728487 q -0.0198,0.0568 -0.0766,0.103716 -0.0568,0.04692 -0.14076,0.04692 h -0.51858 l 1.40512,-3.570817 h 0.67662 z"
         style="font-style:normal;font-variant:normal;font-weight:bold;font-stretch:normal;font-size:4.93888903px;font-family:Lato;-inkscape-font-specification:'Lato, Bold';font-variant-ligatures:normal;font-variant-caps:normal;font-variant-numeric:normal;font-feature-settings:normal;text-align:start;writing-mode:lr-tb;text-anchor:start;fill:#ff0000;stroke-width:0.26458335"
         id="path1022" />
    </g>
  </g>
</svg>
